<svg width="200" height="80" viewBox="0 0 200 80" xmlns="http://www.w3.org/2000/svg" xmlns:xlink="http://www.w3.org/1999/xlink">
    <defs>
        <path id="f3owaxbiha" d="M0 22.794h180V0H0z"/>
    </defs>
    <g transform="translate(10 29)" fill="none" fill-rule="evenodd">
        <path d="M73.817 15.037H72v3.79h-1.607V9.639H72v4.012h1.817v1.386zm-7.646 1.28c.488 0 .84-.093 1.059-.28.217-.188.327-.408.327-.66a.886.886 0 0 0-.32-.68c-.214-.192-.57-.288-1.066-.288-.514 0-.875.096-1.085.288a.893.893 0 0 0-.313.68c0 .252.104.472.313.66.21.187.57.28 1.085.28zm6.077 5.202h-7.815v-3.084h1.634v1.712h6.181v1.372zm-8.246-10.495h4.326V9.73h-4.326v1.294zm2.17 6.483c-.48 0-.903-.061-1.269-.183a2.925 2.925 0 0 1-.915-.477 2.005 2.005 0 0 1-.555-.68 1.774 1.774 0 0 1 0-1.594c.126-.257.311-.486.555-.686.244-.2.55-.36.915-.478a4.154 4.154 0 0 1 1.268-.176c.48 0 .9.059 1.261.176.362.118.667.277.915.478.249.2.436.429.562.686a1.774 1.774 0 0 1 0 1.594 1.979 1.979 0 0 1-.562.68 3.03 3.03 0 0 1-.915.477 3.942 3.942 0 0 1-1.26.183zm-3.726-4.627h7.345V11.64h-7.345v1.241zM75.764 9.966h7.999a39.723 39.723 0 0 1-.288 4.077h2.104v1.347h-4.875v1.934h3.098v4.457h-1.608v-3.085H75.7v-1.372h3.372V15.39h-4.94v-1.347h7.724c.078-.53.139-1.017.183-1.457.043-.44.065-.856.065-1.248h-6.339V9.966z" fill="#FFF"/>
        <mask id="vavu7spn0b" fill="#fff">
            <use xlink:href="#f3owaxbiha"/>
        </mask>
        <path d="M89.396 13.128h4.535v-1.816h-4.535v1.816zm-1.621 1.307h7.79v-4.47h-7.79v4.47zm8.182 7.136H87.71v-3.685h1.594v2.313h6.653v1.372zm-3.242-2.509h-1.66v-2.274h-5.149v-1.36h11.45v1.36h-4.64v2.274zM109.17 15.99h-1.765v5.764h-1.555V9.64h1.555v4.993h1.765v1.359zm-6.313-.483c0-.253-.1-.47-.3-.653-.2-.183-.54-.275-1.02-.275-.488 0-.83.092-1.026.275a.863.863 0 0 0-.294.653c0 .262.098.484.294.667.196.183.538.274 1.026.274.48 0 .82-.091 1.02-.274a.87.87 0 0 0 .3-.667zm-3.424-4.247h4.156V9.979h-4.156v1.28zm-1.542 1.83h7.24v-1.255h-7.24v1.254zm6.482 2.417c0 .497-.167.93-.503 1.3-.335.371-.825.617-1.47.74v.966c.54-.035 1.074-.072 1.6-.111.528-.04 1.035-.094 1.523-.164v1.294c-.462.07-.95.13-1.463.177-.515.048-1.04.087-1.575.118-.536.03-1.068.054-1.595.072a46.22 46.22 0 0 1-1.51.026h-1.698v-1.333h2.359c.23 0 .472-.005.725-.014V17.56c-.68-.113-1.194-.357-1.542-.732a1.875 1.875 0 0 1-.523-1.32c0-.296.061-.57.183-.823s.303-.475.542-.667c.24-.191.536-.342.89-.45.352-.11.76-.164 1.221-.164.453 0 .856.054 1.21.163.352.11.65.26.894.451a1.9 1.9 0 0 1 .55.667c.121.252.182.527.182.823zM118.514 21.755h1.516V9.639h-1.516v12.116zm-3.306-5.934h1.006v-2.327h-1.006a12.738 12.738 0 0 1 .052 1.216 10.528 10.528 0 0 1-.052 1.111zm-1.464-1.111c0-.932-.08-1.653-.242-2.163-.161-.51-.442-.765-.843-.765-.392 0-.658.255-.797.765-.14.51-.21 1.23-.21 2.163 0 .941.07 1.666.21 2.176.14.51.405.764.797.764.401 0 .682-.254.843-.764.161-.51.242-1.235.242-2.176zm2.457 2.47h-1.242c-.383 1.255-1.15 1.882-2.3 1.882-.889 0-1.546-.372-1.973-1.117-.427-.745-.64-1.823-.64-3.235 0-1.438.21-2.52.633-3.248.423-.727 1.083-1.091 1.98-1.091.584 0 1.06.148 1.432.444.37.296.65.736.842 1.32h1.268V9.77h1.49v11.684h-1.49V17.18zM127.676 10.998c.218.236.482.45.791.64.31.192.649.362 1.02.51.37.149.762.275 1.175.38.414.104.84.187 1.275.248l-.837 1.254a9.374 9.374 0 0 1-2.365-.718 7.908 7.908 0 0 1-1.882-1.203 6.442 6.442 0 0 1-.876.706 7.634 7.634 0 0 1-1.026.581 9.3 9.3 0 0 1-1.11.438 7.808 7.808 0 0 1-1.118.275l-.81-1.229a9.413 9.413 0 0 0 1.803-.457c.54-.2 1.004-.438 1.392-.712.388-.275.684-.587.889-.935.204-.348.307-.727.307-1.137h1.66c.017.235 0 .466-.052.693-.053.226-.131.449-.236.666zm-1.568 5.516v-.89h-4.875v-1.267h11.449v1.268h-4.94v.889h3.175v3.215h-6.338v.718h6.639v1.307h-8.234v-3.24h6.313v-.693h-6.313v-1.307h3.124zM141.582 11.416V9.64h1.62v7.28h-1.62V15.35h-2v-1.32h2.013v-1.32h-1.686v-1.295h1.673zm-2.379 6.77c-.444 0-.823.033-1.137.098a2.602 2.602 0 0 0-.764.268c-.196.114-.338.24-.425.38a.824.824 0 0 0-.13.444c0 .148.043.294.13.438.087.143.229.272.425.385.196.113.45.203.764.268a5.66 5.66 0 0 0 1.137.098c.445 0 .824-.033 1.137-.098.314-.065.569-.155.765-.268.196-.113.34-.242.431-.385a.808.808 0 0 0 .138-.438.797.797 0 0 0-.138-.445 1.25 1.25 0 0 0-.431-.379 2.602 2.602 0 0 0-.765-.268 5.66 5.66 0 0 0-1.137-.098zm0-1.307c.68 0 1.275.066 1.785.197.51.13.938.307 1.287.529.348.222.61.486.784.79.174.306.261.632.261.98 0 .35-.087.674-.261.974-.174.301-.436.562-.784.785-.349.222-.778.396-1.287.522-.51.127-1.105.19-1.785.19-.68 0-1.274-.063-1.783-.19-.51-.126-.935-.3-1.275-.522a2.355 2.355 0 0 1-.77-.785 1.907 1.907 0 0 1-.262-.973c0-.349.087-.675.261-.98.174-.305.431-.569.771-.791.34-.222.765-.399 1.275-.53.51-.13 1.104-.196 1.783-.196zm-1.293-5.436c-.306.008-.693.015-1.164.02-.47.004-.967.006-1.49.006h-1.15v-1.32H137.753c.601 0 1.267-.009 2-.027a7.358 7.358 0 0 1-.471 2.144c-.262.68-.625 1.3-1.091 1.862a7.549 7.549 0 0 1-1.686 1.49 8.826 8.826 0 0 1-2.268 1.04l-.902-1.177c1.403-.444 2.479-1.008 3.228-1.693.75-.683 1.198-1.465 1.347-2.345zM151.685 13.638h1.686v-1.516h-1.739a3.16 3.16 0 0 1 .098 1.196 6.647 6.647 0 0 1-.045.32m-.64 4.352c-.445 0-.82.035-1.125.105-.305.07-.553.163-.745.281a1.167 1.167 0 0 0-.418.405.95.95 0 0 0-.13.477c0 .166.043.325.13.477.087.153.227.288.418.405.192.118.44.212.745.281.305.07.68.105 1.124.105.445 0 .822-.035 1.131-.105.309-.07.562-.163.758-.28a1.16 1.16 0 0 0 .425-.406.947.947 0 0 0 .13-.477.95.95 0 0 0-.13-.477 1.16 1.16 0 0 0-.425-.405 2.586 2.586 0 0 0-.758-.281 5.234 5.234 0 0 0-1.13-.105m-4.013-5.005c0 .514.141.926.425 1.235.283.31.664.464 1.144.464.47 0 .847-.155 1.13-.464.283-.31.425-.721.425-1.235 0-.505-.142-.917-.425-1.235-.283-.318-.66-.477-1.13-.477-.471 0-.85.159-1.137.477-.288.318-.432.73-.432 1.235m4.012 3.685c.68 0 1.275.068 1.784.203.51.135.935.318 1.275.549.34.23.595.503.764.817.17.313.255.653.255 1.02 0 .365-.085.705-.255 1.019-.17.313-.424.585-.764.816-.34.231-.765.414-1.275.55-.51.134-1.104.202-1.784.202-.68 0-1.272-.068-1.777-.203-.505-.135-.926-.318-1.261-.549a2.36 2.36 0 0 1-.758-.816 2.107 2.107 0 0 1-.255-1.02c0-.366.085-.706.255-1.02.17-.313.422-.585.758-.816.335-.23.756-.414 1.26-.55.506-.134 1.099-.202 1.778-.202m-.117-5.79h2.43V9.64h1.621v7.136h-1.62v-1.882h-2.261a2.92 2.92 0 0 1-1.059.823c-.427.2-.906.301-1.437.301-.471 0-.898-.078-1.281-.235a3.037 3.037 0 0 1-.993-.647 2.897 2.897 0 0 1-.648-.96 3.06 3.06 0 0 1-.228-1.19c0-.427.076-.826.228-1.196.153-.37.369-.693.648-.967.278-.275.609-.492.993-.654.383-.16.81-.241 1.28-.241.488 0 .928.084 1.32.254.392.17.728.403 1.007.7M168.022 14.331h-1.817v3.032h-1.608V9.639h1.608v3.346h1.817v1.346zm-7.646 1.777c.479 0 .823-.091 1.033-.274.209-.183.313-.392.313-.627 0-.253-.1-.469-.3-.647-.2-.179-.55-.268-1.046-.268-.506 0-.858.09-1.059.268-.2.178-.3.394-.3.647 0 .244.102.455.307.633.205.18.555.268 1.052.268zm4.221 5.672v-2.6h-6.351v-1.307h7.959v3.907h-1.608zm-6.39-10.886h4.326V9.652h-4.326v1.242zm2.169 6.417c-.48 0-.9-.06-1.261-.177a2.84 2.84 0 0 1-.908-.47 1.951 1.951 0 0 1-.55-.673 1.78 1.78 0 0 1 0-1.569c.122-.252.306-.474.55-.666.243-.192.546-.346.908-.464a4.085 4.085 0 0 1 1.261-.177c.47 0 .887.06 1.248.177.362.118.665.272.908.464.244.192.43.414.556.666.126.253.19.515.19.785s-.064.531-.19.784a2.025 2.025 0 0 1-.556.673 2.839 2.839 0 0 1-.908.47 4.042 4.042 0 0 1-1.248.177zm-3.725-4.548h7.345V11.56h-7.345v1.203zM177.21 21.755h1.607V9.639h-1.607v12.116zm-3.124-6.26a.83.83 0 0 0-.307-.648c-.205-.178-.565-.268-1.078-.268-.523 0-.887.09-1.092.268a.829.829 0 0 0-.307.647.83.83 0 0 0 .307.673c.205.17.569.255 1.092.255.513 0 .873-.085 1.078-.255a.832.832 0 0 0 .307-.673zM170.4 11.26h4.444V9.979H170.4v1.28zm-1.477 1.83h7.502v-1.255h-7.502v1.254zm4.627 4.47v.953c.566-.026 1.128-.06 1.686-.105.557-.043 1.09-.1 1.595-.17v1.295c-.462.07-.95.128-1.464.176-.515.048-1.037.087-1.569.118-.531.03-1.06.054-1.588.072-.527.017-1.025.026-1.496.026h-2.078v-1.333h2.653c.21 0 .427-.005.654-.014v-1.006c-.732-.104-1.29-.344-1.673-.719a1.83 1.83 0 0 1-.575-1.359c0-.296.065-.573.196-.83.13-.257.324-.479.581-.666a2.93 2.93 0 0 1 .941-.438c.37-.105.8-.157 1.288-.157.479 0 .903.052 1.274.157.37.104.684.25.94.438.258.187.452.41.582.666.131.257.197.534.197.83 0 .523-.184.967-.55 1.333-.365.366-.897.61-1.594.732zM65.826 6.194a.338.338 0 0 0 .067.017.687.687 0 0 1 .082.02l.07.022c.02.007.03.014.03.02a.926.926 0 0 1-.01.132 1.244 1.244 0 0 1-.026.142h-.596a.514.514 0 0 1-.177-.137 2.17 2.17 0 0 1-.171-.216L64.19 4.88a16.739 16.739 0 0 0-.318.288v1.01c.086.016.163.034.231.052.068.018.102.03.102.037v.055a.697.697 0 0 1-.005.082l-.01.082a.193.193 0 0 1-.015.06h-1.178a.176.176 0 0 1-.013-.065 1.605 1.605 0 0 1 0-.174c.002-.026.006-.043.013-.05a.498.498 0 0 1 .095-.04l.069-.02a.738.738 0 0 1 .06-.014.254.254 0 0 0 .062-.023.052.052 0 0 0 .027-.037c.003-.033.006-.071.008-.114l.005-.13.002-.126v-2.22a3.313 3.313 0 0 1-.231-.052c-.068-.019-.102-.031-.102-.038V3.39c0-.027.002-.054.005-.082l.01-.082a.186.186 0 0 1 .015-.06H64.2a.85.85 0 0 1 .012.239c-.001.026-.005.043-.012.05-.003.006-.014.013-.032.02a.833.833 0 0 1-.063.02l-.069.019a.693.693 0 0 1-.06.015.276.276 0 0 0-.062.022.052.052 0 0 0-.027.038 1.886 1.886 0 0 0-.008.114l-.005.13a3.28 3.28 0 0 0-.002.126v.738l1.173-1.148v-.02a1.704 1.704 0 0 1-.189-.04.811.811 0 0 1-.084-.03c-.023-.01-.035-.018-.035-.024a.883.883 0 0 1 .01-.132c.003-.028.007-.056.012-.082a.16.16 0 0 1 .018-.055h1.148c.007.01.012.03.015.057a.802.802 0 0 1 .005.09.51.51 0 0 1-.007.09c-.005.027-.013.046-.023.056a.66.66 0 0 1-.107.04l-.106.03a.43.43 0 0 0-.145.08 1.14 1.14 0 0 0-.1.086 101.986 101.986 0 0 0-.25.244l-.097.097-.274.251c-.096.088-.193.18-.293.276a7.878 7.878 0 0 1 .433.532l.706.98c.026.04.05.067.074.084a.23.23 0 0 0 .07.035M66.89 5.274c0 .315.06.556.181.723.121.168.296.252.525.252.228 0 .403-.084.524-.252.121-.167.182-.408.182-.723 0-.312-.06-.55-.18-.716-.119-.166-.293-.249-.521-.249-.229 0-.405.083-.527.25-.123.165-.184.403-.184.715m.71 1.372c-.192 0-.366-.03-.524-.092a1.09 1.09 0 0 1-.403-.268 1.197 1.197 0 0 1-.256-.433 1.75 1.75 0 0 1-.089-.579c0-.215.03-.408.09-.577a1.102 1.102 0 0 1 .659-.693c.157-.061.331-.092.524-.092.192 0 .366.03.522.092.156.061.288.15.397.266.11.116.194.258.254.427.06.17.09.362.09.577 0 .215-.03.409-.09.58-.06.17-.144.314-.254.432a1.07 1.07 0 0 1-.397.268c-.156.061-.33.092-.522.092M70.812 3.912a.46.46 0 0 1 .281.08c.071.052.107.13.107.233 0 .116-.024.201-.072.256a.447.447 0 0 1-.172.122h-.054a3.566 3.566 0 0 0-.112-.117 1.198 1.198 0 0 0-.122-.107.89.89 0 0 0-.3.105 1.226 1.226 0 0 0-.267.203v1.517c.027.003.063.009.107.017l.13.025a.903.903 0 0 1 .106.027c.03.01.045.017.045.02a1.519 1.519 0 0 1-.035.253h-1.178a.803.803 0 0 1-.012-.236c.001-.024.005-.04.012-.047a.127.127 0 0 1 .032-.014l.063-.023c.023-.008.047-.016.072-.022a.53.53 0 0 0 .062-.02c.033-.01.05-.028.05-.055a8.917 8.917 0 0 0 .01-.477V4.533a.36.36 0 0 0-.013-.107c-.008-.025-.036-.042-.082-.052l-.229-.045a1.036 1.036 0 0 1 0-.264c.033-.012.082-.026.147-.041.065-.015.133-.03.206-.043a8.335 8.335 0 0 1 .353-.054l.09.035v.472h.005a.902.902 0 0 1 .117-.172 1.24 1.24 0 0 1 .176-.171.892.892 0 0 1 .221-.13.67.67 0 0 1 .256-.05M73.214 5.02v-.104c0-.189-.05-.336-.15-.442a.49.49 0 0 0-.372-.16c-.12 0-.22.024-.304.07a.614.614 0 0 0-.201.177.769.769 0 0 0-.114.23.96.96 0 0 0-.043.23h1.184zm.571-.06c0 .057-.002.13-.007.217a1.398 1.398 0 0 1-.022.202H72.03c.004.109.023.214.058.315a.72.72 0 0 0 .403.443.9.9 0 0 0 .365.067 2.165 2.165 0 0 0 .59-.102.966.966 0 0 0 .16-.072l.12.263a1.09 1.09 0 0 1-.425.259c-.178.063-.37.094-.58.094-.208 0-.39-.033-.546-.1a1.092 1.092 0 0 1-.627-.683 1.567 1.567 0 0 1-.08-.504c0-.242.034-.454.1-.637.066-.182.157-.333.271-.452.114-.12.25-.209.405-.269.156-.06.322-.09.497-.09.166 0 .322.032.468.095a.861.861 0 0 1 .358.284c.056.076.107.171.151.286.045.114.067.242.067.385zM74.745 5.89c0 .107.03.19.09.252.06.061.155.092.288.092a.945.945 0 0 0 .25-.035.818.818 0 0 0 .347-.184v-.746a1.6 1.6 0 0 0-.369.045c-.125.03-.236.074-.332.134a.633.633 0 0 0-.214.191.474.474 0 0 0-.06.251m1.83.329c.01.01.017.028.022.054a1.207 1.207 0 0 1 .02.164.173.173 0 0 1-.003.055.522.522 0 0 1-.198.087c-.08.018-.168.028-.264.028-.152 0-.255-.025-.308-.075a.253.253 0 0 1-.08-.194v-.065h-.01l-.072.082a.86.86 0 0 1-.077.077 1.012 1.012 0 0 1-.258.155c-.097.04-.226.06-.388.06a.81.81 0 0 1-.537-.175c-.14-.116-.209-.283-.209-.502 0-.169.04-.314.122-.435.08-.12.216-.23.405-.326.126-.066.278-.118.455-.156a4.62 4.62 0 0 1 .525-.082v-.19c0-.046-.004-.098-.01-.158a.45.45 0 0 0-.053-.167.358.358 0 0 0-.132-.132.475.475 0 0 0-.248-.054.877.877 0 0 0-.236.03.343.343 0 0 0-.147.07.268.268 0 0 0-.015.069 1.542 1.542 0 0 0-.01.201v.087a.344.344 0 0 1-.104.055.937.937 0 0 1-.259.047l-.109.003c-.053 0-.089-.01-.107-.03-.018-.02-.027-.052-.027-.095 0-.073.017-.153.052-.24a.507.507 0 0 1 .171-.222 1.606 1.606 0 0 1 .611-.298c.09-.024.188-.035.294-.035.19 0 .341.026.455.08a.711.711 0 0 1 .271.208c.07.096.11.199.122.308.012.11.017.21.017.299v1.238c0 .056.01.1.028.134.018.033.062.05.132.05a1.634 1.634 0 0 0 .159-.01M79.52 6.221a.77.77 0 0 1 .097.02l.077.022c.022.007.033.012.033.015a.95.95 0 0 1-.01.127 1.336 1.336 0 0 1-.025.142h-1.09a.806.806 0 0 1-.012-.236c.002-.025.006-.041.013-.048a.127.127 0 0 1 .032-.015c.018-.006.04-.013.062-.022a.907.907 0 0 1 .072-.022.53.53 0 0 0 .063-.02c.033-.01.05-.028.05-.055a9.012 9.012 0 0 0 .01-.477v-.78a.589.589 0 0 0-.113-.376c-.074-.094-.203-.142-.385-.142a1.09 1.09 0 0 0-.316.048.953.953 0 0 0-.3.156v1.646a.947.947 0 0 0 .09.017.794.794 0 0 1 .198.057c0 .01 0 .027-.003.05a1.68 1.68 0 0 1-.032.219h-1.079a.806.806 0 0 1-.012-.236c.001-.025.006-.041.012-.048a.12.12 0 0 1 .033-.015l.062-.022a.932.932 0 0 1 .072-.022.519.519 0 0 0 .062-.02c.033-.01.05-.028.05-.055a9.013 9.013 0 0 0 .01-.477V4.533a.353.353 0 0 0-.013-.107c-.008-.024-.035-.042-.082-.052l-.228-.045a1.037 1.037 0 0 1 0-.264c.033-.012.082-.027.149-.041a7.892 7.892 0 0 1 .572-.097l.089.035v.333c.179-.256.467-.383.865-.383.13 0 .256.019.38.057a.656.656 0 0 1 .306.191c.076.087.12.184.132.291.011.108.017.231.017.37v1.383a.909.909 0 0 0 .092.017M82.47 6.646a2.65 2.65 0 0 1-.469-.04 5.905 5.905 0 0 1-.38-.08l-.254-.084c-.016-.006-.026-.013-.03-.02a.083.083 0 0 1-.005-.034v-.865a.51.51 0 0 1 .14-.015.57.57 0 0 1 .144.015l.144.387a.501.501 0 0 0 .266.279c.13.063.29.094.48.094a1.1 1.1 0 0 0 .328-.042.621.621 0 0 0 .221-.117.42.42 0 0 0 .124-.176.639.639 0 0 0-.01-.45.486.486 0 0 0-.121-.157.772.772 0 0 0-.164-.104 2.81 2.81 0 0 0-.18-.077l-.507-.194a2.064 2.064 0 0 1-.315-.157 1.298 1.298 0 0 1-.266-.211.935.935 0 0 1-.182-.271.807.807 0 0 1-.067-.33c0-.113.02-.225.062-.336a.786.786 0 0 1 .202-.299 1.05 1.05 0 0 1 .358-.213c.145-.055.321-.082.527-.082.132 0 .264.011.395.034.13.024.26.055.385.095l.283.12c.024.009.035.026.035.049v.746a.237.237 0 0 1-.052.007 1.234 1.234 0 0 1-.231-.007l-.13-.343a.45.45 0 0 0-.223-.23.946.946 0 0 0-.452-.094.903.903 0 0 0-.299.043.545.545 0 0 0-.191.11.377.377 0 0 0-.102.153.541.541 0 0 0-.03.177c0 .08.016.148.047.206a.509.509 0 0 0 .122.15c.05.04.104.075.164.104.06.028.118.052.174.072l.487.184c.282.106.495.235.64.387a.82.82 0 0 1 .216.587c0 .143-.026.276-.077.4a.87.87 0 0 1-.237.326c-.106.093-.24.166-.4.221a1.77 1.77 0 0 1-.57.082M84.673 5.274c0 .315.06.556.182.723.12.168.296.252.524.252.229 0 .404-.084.525-.252.12-.167.181-.408.181-.723 0-.312-.06-.55-.179-.716-.12-.166-.293-.249-.522-.249-.228 0-.404.083-.527.25-.122.165-.184.403-.184.715m.711 1.372c-.192 0-.367-.03-.524-.092a1.09 1.09 0 0 1-.403-.268 1.194 1.194 0 0 1-.256-.433c-.06-.17-.09-.364-.09-.579 0-.215.03-.408.09-.577a1.102 1.102 0 0 1 .659-.693c.157-.061.332-.092.524-.092.193 0 .367.03.522.092.156.061.289.15.398.266.11.116.194.258.254.427.06.17.09.362.09.577 0 .215-.03.409-.09.58-.06.17-.145.314-.254.432a1.07 1.07 0 0 1-.398.268c-.155.061-.33.092-.522.092M88.303 6.646a1.41 1.41 0 0 1-.532-.094 1.092 1.092 0 0 1-.393-.264 1.114 1.114 0 0 1-.241-.407 1.594 1.594 0 0 1-.082-.522c0-.22.034-.417.102-.595a1.261 1.261 0 0 1 .718-.748c.17-.07.353-.104.552-.104.096 0 .208.01.336.032a.866.866 0 0 1 .34.132.48.48 0 0 1 .142.142.358.358 0 0 1 .057.2c0 .097-.03.182-.092.257-.061.074-.127.117-.196.127h-.05a1.24 1.24 0 0 1-.045-.087 2.35 2.35 0 0 0-.114-.214 1.91 1.91 0 0 1-.05-.092.379.379 0 0 0-.164-.072.983.983 0 0 0-.229-.027c-.242 0-.426.086-.554.26-.128.175-.192.404-.192.69 0 .135.016.26.048.374a.86.86 0 0 0 .144.299.667.667 0 0 0 .249.199.832.832 0 0 0 .36.072c.159 0 .309-.019.45-.055.14-.036.25-.076.325-.12l.12.264a1.09 1.09 0 0 1-.428.259 1.74 1.74 0 0 1-.581.094M90.222 3.618a.77.77 0 0 1-.279-.156.316.316 0 0 1-.104-.241c0-.096.035-.18.104-.251a.371.371 0 0 1 .279-.107.37.37 0 0 1 .278.107c.07.07.105.155.105.25a.316.316 0 0 1-.105.242.768.768 0 0 1-.278.156zm-.592.711a.356.356 0 0 1-.007-.054 1.157 1.157 0 0 1 .007-.209c.033-.013.087-.028.162-.042a6.16 6.16 0 0 1 .472-.077c.075-.01.128-.017.162-.02l.089.035v2.242a1.907 1.907 0 0 1 .279.057c.023.008.034.014.034.017 0 .01 0 .027-.002.05a3.077 3.077 0 0 1-.02.16l-.012.059h-1.13a.853.853 0 0 1-.012-.236c.002-.025.006-.04.013-.048a.855.855 0 0 1 .186-.064.53.53 0 0 0 .067-.02c.034-.01.05-.028.05-.055a9.82 9.82 0 0 0 .01-.472V4.533a.37.37 0 0 0-.012-.109c-.009-.027-.036-.043-.082-.05l-.254-.045zM92.941 5.02v-.104c0-.189-.05-.336-.15-.442a.49.49 0 0 0-.372-.16c-.12 0-.22.024-.303.07a.612.612 0 0 0-.201.177.77.77 0 0 0-.115.23.968.968 0 0 0-.042.23h1.183zm.572-.06c0 .057-.003.13-.007.217a1.398 1.398 0 0 1-.023.202h-1.725c.003.109.022.214.057.315a.718.718 0 0 0 .403.443.9.9 0 0 0 .365.067 2.165 2.165 0 0 0 .59-.102.966.966 0 0 0 .161-.072l.12.263a1.09 1.09 0 0 1-.426.259c-.177.063-.37.094-.579.094a1.39 1.39 0 0 1-.547-.1 1.091 1.091 0 0 1-.626-.683 1.572 1.572 0 0 1-.08-.504c0-.242.033-.454.1-.637a1.27 1.27 0 0 1 .27-.452c.115-.12.25-.209.406-.269.156-.06.321-.09.497-.09.166 0 .321.032.467.095a.86.86 0 0 1 .358.284c.057.076.107.171.152.286.045.114.067.242.067.385zM93.767 4.364a1.198 1.198 0 0 1-.026-.216c0-.035.004-.057.01-.067a.324.324 0 0 1 .078-.03 3.507 3.507 0 0 1 .345-.065c.033-.096.072-.198.117-.305.045-.108.09-.2.137-.276h.313v.606h.736v.363c0 .023-.012.035-.035.035h-.7V5.99c0 .096.029.16.088.191.06.032.123.048.19.048.075 0 .157-.009.243-.025a1.14 1.14 0 0 0 .214-.06l.014.06c.007.03.012.061.016.094l.01.095a.7.7 0 0 1 .004.064.81.81 0 0 1-.171.09 1.584 1.584 0 0 1-.505.1c-.08 0-.158-.005-.236-.013a.512.512 0 0 1-.206-.065.376.376 0 0 1-.144-.159.656.656 0 0 1-.055-.296V4.41h-.418c-.006 0-.013-.015-.02-.045M98.415 4.07a.825.825 0 0 1-.002.185.174.174 0 0 1-.018.06.427.427 0 0 1-.122.044 9.073 9.073 0 0 1-.126.03l-.194.472-.706 1.686c-.077.182-.149.345-.216.49a4.877 4.877 0 0 1-.202.385.851.851 0 0 1-.288.3c-.12.075-.28.112-.483.112a.688.688 0 0 1-.385-.094.305.305 0 0 1-.142-.268.435.435 0 0 1 .164-.329h.065a.515.515 0 0 0 .408.204.429.429 0 0 0 .206-.05.534.534 0 0 0 .182-.193c.04-.063.084-.143.134-.24.05-.095.094-.201.134-.317l-.676-1.64a14.73 14.73 0 0 1-.1-.232 3.33 3.33 0 0 0-.109-.221.157.157 0 0 0-.05-.065.335.335 0 0 0-.05-.025l-.188-.05c-.01-.01-.017-.03-.02-.06a.785.785 0 0 1 0-.183.145.145 0 0 1 .015-.06h1.148c.014.027.021.072.023.137l.002.137c0 .006-.032.015-.094.027-.063.012-.131.022-.204.032l.164.463.199.547c.03.082.065.186.106.31l.118.346.233-.652.199-.556c.026-.073.05-.145.072-.217.022-.07.044-.148.067-.23a4.041 4.041 0 0 1-.198-.035c-.067-.014-.1-.024-.1-.03 0-.01 0-.029.002-.055l.005-.085a.65.65 0 0 1 .01-.084.164.164 0 0 1 .018-.055h.984c.007.01.012.03.015.06M100.578 5.274c0 .315.06.556.181.723.121.168.296.252.525.252.228 0 .403-.084.524-.252.121-.167.182-.408.182-.723 0-.312-.06-.55-.18-.716-.119-.166-.293-.249-.521-.249-.229 0-.405.083-.527.25-.123.165-.184.403-.184.715m.71 1.372c-.192 0-.366-.03-.524-.092a1.09 1.09 0 0 1-.403-.268 1.197 1.197 0 0 1-.256-.433c-.06-.17-.089-.364-.089-.579 0-.215.03-.408.09-.577a1.104 1.104 0 0 1 .659-.693c.157-.061.331-.092.524-.092.192 0 .366.03.522.092.155.061.288.15.397.266.11.116.194.258.254.427.06.17.09.362.09.577 0 .215-.03.409-.09.58-.06.17-.144.314-.254.432-.109.117-.242.207-.397.268-.156.061-.33.092-.522.092M104.49 2.684c.18 0 .307.03.383.092a.29.29 0 0 1 .115.236.31.31 0 0 1-.06.186.37.37 0 0 1-.144.122h-.065a1.542 1.542 0 0 0-.254-.159.535.535 0 0 0-.233-.055.248.248 0 0 0-.251.17c-.045.112-.067.293-.067.541v.194h.756v.363c0 .023-.012.035-.036.035h-.72v1.795a9.608 9.608 0 0 1 .236.042c.041.008.077.017.107.025s.044.014.044.017a.767.767 0 0 1-.01.124 1.059 1.059 0 0 1-.024.135h-1.204a.761.761 0 0 1-.012-.236c.002-.025.006-.041.012-.048a.782.782 0 0 1 .186-.065.5.5 0 0 0 .068-.02c.033-.01.05-.027.05-.054l.007-.241.003-.231V4.409h-.492c-.004 0-.006-.015-.008-.045a1.853 1.853 0 0 1 .008-.293l.492-.055c0-.156.012-.31.037-.462.025-.153.087-.299.186-.438a1.05 1.05 0 0 1 .89-.432M108.433 5.165l-.253-.691-.249-.726h-.04l-.238.73-.24.687h1.02zm1.258 1.074c.01.01.016.03.02.06a.953.953 0 0 1 0 .188.157.157 0 0 1-.015.06h-1.168a.408.408 0 0 1-.028-.14 2.283 2.283 0 0 1-.007-.139c0-.006.035-.016.104-.03.07-.013.141-.023.214-.03l-.249-.69h-1.272l-.234.686a2.822 2.822 0 0 1 .199.027c.03.005.054.01.074.017.02.007.03.014.03.02a1.08 1.08 0 0 1-.01.14c-.003.03-.007.057-.012.084a.171.171 0 0 1-.018.055h-1.034c-.007-.01-.01-.03-.012-.06a1.65 1.65 0 0 1-.003-.092c0-.031.003-.062.008-.092s.01-.05.017-.06a.84.84 0 0 1 .17-.06.14.14 0 0 0 .089-.069c.013-.033.029-.07.047-.11a3.926 3.926 0 0 0 .097-.228l.035-.084.94-2.526a1.968 1.968 0 0 0 .373-.09.323.323 0 0 1 .094-.01c.043 0 .073.004.089.01l.975 2.576c.01.026.024.06.042.1l.057.126a2.558 2.558 0 0 0 .11.221c.016.03.032.05.047.062a.17.17 0 0 0 .052.028l.09.02a.357.357 0 0 1 .089.03zM111.55 3.912a.46.46 0 0 1 .281.08c.071.052.107.13.107.233 0 .116-.024.201-.072.256a.446.446 0 0 1-.172.122h-.054a3.566 3.566 0 0 0-.112-.117 1.198 1.198 0 0 0-.122-.107.89.89 0 0 0-.3.105 1.226 1.226 0 0 0-.267.203v1.517c.027.003.062.009.107.017l.13.025a.912.912 0 0 1 .106.027c.03.01.045.017.045.02a1.52 1.52 0 0 1-.035.253h-1.178a.85.85 0 0 1-.012-.236c.001-.024.005-.04.012-.047a.128.128 0 0 1 .032-.014l.062-.023c.024-.008.048-.016.073-.022a.53.53 0 0 0 .062-.02c.033-.01.05-.028.05-.055a8.915 8.915 0 0 0 .01-.477V4.533a.36.36 0 0 0-.013-.107c-.008-.025-.036-.042-.082-.052l-.229-.045a.935.935 0 0 1 0-.264c.033-.012.082-.026.147-.041.065-.015.133-.03.206-.043a8.335 8.335 0 0 1 .353-.054l.09.035v.472h.005a.902.902 0 0 1 .116-.172 1.24 1.24 0 0 1 .177-.171.892.892 0 0 1 .221-.13.67.67 0 0 1 .256-.05M112.082 4.364a1.198 1.198 0 0 1-.025-.216c0-.035.004-.057.01-.067a.325.325 0 0 1 .077-.03 3.507 3.507 0 0 1 .345-.065c.034-.096.073-.198.118-.305.044-.108.09-.2.137-.276h.313v.606h.735v.363c0 .023-.011.035-.034.035h-.701V5.99c0 .096.03.16.09.191.059.032.122.048.188.048.076 0 .157-.009.244-.025.086-.017.157-.037.213-.06a.762.762 0 0 1 .03.154l.01.095a.7.7 0 0 1 .005.064.81.81 0 0 1-.171.09 1.584 1.584 0 0 1-.505.1c-.08 0-.158-.005-.236-.013a.512.512 0 0 1-.206-.065.376.376 0 0 1-.145-.159.656.656 0 0 1-.054-.296V4.41h-.418c-.007 0-.013-.015-.02-.045M115.045 6.646c-.056 0-.117-.003-.184-.01a7.03 7.03 0 0 1-.38-.05 1.193 1.193 0 0 1-.137-.03l-.199-.069c-.016-.006-.024-.022-.024-.045v-.66a1.23 1.23 0 0 1 .22-.033.204.204 0 0 1 .058.002l.124.293c.047.107.12.183.221.23a.77.77 0 0 0 .326.069c.133 0 .24-.03.323-.087a.293.293 0 0 0 .125-.256.313.313 0 0 0-.097-.246.566.566 0 0 0-.137-.097 2.003 2.003 0 0 0-.214-.095l-.234-.09c-.235-.089-.407-.193-.517-.312-.109-.12-.164-.285-.164-.497 0-.1.017-.194.05-.284a.628.628 0 0 1 .16-.239.802.802 0 0 1 .275-.166c.111-.041.244-.062.4-.062.106 0 .203.009.291.027.088.018.182.042.281.072l.234.09c.02.006.03.02.03.04v.556a.157.157 0 0 1-.053.018 1.044 1.044 0 0 1-.156.017.265.265 0 0 1-.06-.005l-.124-.318a.289.289 0 0 0-.13-.14.504.504 0 0 0-.253-.054.621.621 0 0 0-.326.082c-.09.055-.136.145-.136.271 0 .053.011.1.034.14.024.039.054.074.092.104s.08.056.125.08a.88.88 0 0 0 .126.054l.383.144c.08.03.156.065.23.104.072.04.136.09.19.147a.68.68 0 0 1 .182.495c0 .116-.02.223-.06.32a.701.701 0 0 1-.179.257.845.845 0 0 1-.298.171 1.28 1.28 0 0 1-.418.062M118.247 5.89c0 .107.03.19.09.252.06.061.155.092.288.092a.946.946 0 0 0 .251-.035.818.818 0 0 0 .346-.184v-.746c-.12 0-.243.015-.368.045-.126.03-.238.074-.334.134a.637.637 0 0 0-.213.191.474.474 0 0 0-.06.251m1.83.329c.01.01.017.028.022.054a1.336 1.336 0 0 1 .02.164.166.166 0 0 1-.003.055.522.522 0 0 1-.198.087c-.08.018-.168.028-.264.028-.152 0-.255-.025-.308-.075a.254.254 0 0 1-.08-.194v-.065h-.01l-.072.082a.86.86 0 0 1-.077.077 1.01 1.01 0 0 1-.258.155c-.096.04-.226.06-.388.06a.81.81 0 0 1-.537-.175c-.14-.116-.209-.283-.209-.502 0-.169.04-.314.122-.435.081-.12.216-.23.405-.326.126-.066.278-.118.455-.156.177-.038.352-.066.525-.082v-.19c0-.046-.004-.098-.01-.158a.453.453 0 0 0-.053-.167.36.36 0 0 0-.131-.132.475.475 0 0 0-.25-.054.876.876 0 0 0-.235.03.342.342 0 0 0-.147.07.26.26 0 0 0-.015.069 1.413 1.413 0 0 0-.01.201v.087a.345.345 0 0 1-.104.055.928.928 0 0 1-.259.047l-.109.003c-.053 0-.089-.01-.107-.03-.018-.02-.027-.052-.027-.095 0-.073.017-.153.052-.24a.508.508 0 0 1 .171-.222 1.99 1.99 0 0 1 .157-.107 1.582 1.582 0 0 1 .455-.191c.09-.024.187-.035.293-.035.19 0 .34.026.455.08a.711.711 0 0 1 .271.208c.07.096.11.199.122.308.012.11.017.21.017.299v1.238c0 .056.01.1.028.134.018.033.062.05.132.05a1.634 1.634 0 0 0 .159-.01M123.022 6.221a.766.766 0 0 1 .097.02l.077.022c.022.007.033.012.033.015a.896.896 0 0 1-.01.127 1.1 1.1 0 0 1-.013.082l-.012.06h-1.089a.764.764 0 0 1-.013-.236c.002-.025.006-.041.013-.048a.125.125 0 0 1 .032-.015c.019-.006.04-.013.062-.022a.889.889 0 0 1 .073-.022.542.542 0 0 0 .062-.02c.033-.01.05-.028.05-.055a9.843 9.843 0 0 0 .01-.477v-.78a.589.589 0 0 0-.112-.376c-.075-.094-.203-.142-.386-.142-.106 0-.211.016-.316.048a.957.957 0 0 0-.3.156v1.646a.964.964 0 0 0 .09.017.798.798 0 0 1 .198.057c0 .01 0 .027-.003.05a1.28 1.28 0 0 1-.032.219h-1.078a.853.853 0 0 1-.013-.236c.001-.025.006-.041.013-.048a.114.114 0 0 1 .032-.015l.062-.022a.953.953 0 0 1 .072-.022.519.519 0 0 0 .062-.02c.033-.01.05-.028.05-.055a10.856 10.856 0 0 0 .01-.477V4.533a.352.352 0 0 0-.013-.107c-.008-.024-.035-.042-.082-.052l-.228-.045a.356.356 0 0 1-.008-.054 1.163 1.163 0 0 1 .008-.209c.033-.013.083-.028.149-.042a7.884 7.884 0 0 1 .572-.097l.09.035v.333c.178-.256.466-.383.864-.383.13 0 .256.019.38.057a.655.655 0 0 1 .306.191c.076.087.12.184.132.291.012.108.018.231.018.37v1.383a.899.899 0 0 0 .091.017M124.173 5.324c0 .308.053.532.16.67a.53.53 0 0 0 .447.21c.106 0 .196-.006.27-.018a.751.751 0 0 0 .222-.072.868.868 0 0 0 .189-.114V4.493a.937.937 0 0 0-.12-.109.528.528 0 0 0-.176-.057 1.218 1.218 0 0 0-.196-.017.675.675 0 0 0-.338.084.796.796 0 0 0-.251.224c-.068.093-.12.2-.155.323-.034.122-.052.25-.052.383m2.143.895c.01.01.017.028.022.054a1.097 1.097 0 0 1 .018.219.52.52 0 0 1-.2.087 1.18 1.18 0 0 1-.451.01.25.25 0 0 1-.117-.057.234.234 0 0 1-.063-.107.598.598 0 0 1-.02-.167c-.023.03-.047.06-.074.09a.734.734 0 0 1-.09.084 1.18 1.18 0 0 1-.268.157.97.97 0 0 1-.363.057c-.152 0-.296-.026-.43-.08a.99.99 0 0 1-.584-.618 1.534 1.534 0 0 1-.084-.53c0-.245.034-.461.104-.649.07-.187.165-.344.286-.472.12-.128.261-.224.422-.288.16-.065.333-.097.515-.097a1.365 1.365 0 0 1 .547.11l-.025-.419v-.258a.353.353 0 0 0-.013-.107c-.008-.025-.035-.04-.081-.047l-.254-.045a1.035 1.035 0 0 1 0-.264 1.01 1.01 0 0 1 .161-.042 5.869 5.869 0 0 1 .473-.077l.156-.02.095.035v3.267c0 .066.01.113.032.141.022.029.064.042.127.042a1.488 1.488 0 0 0 .159-.01M129.568 6.258c.162 0 .301-.026.417-.08a.949.949 0 0 0 .303-.218l.23-.487a.276.276 0 0 1 .074 0c.03.003.058.007.087.012a.585.585 0 0 1 .08.02.136.136 0 0 1 .051.027l-.144.82c-.169.1-.356.174-.561.222a2.587 2.587 0 0 1-.587.072c-.262 0-.492-.044-.689-.134a1.346 1.346 0 0 1-.492-.373 1.62 1.62 0 0 1-.296-.564 2.41 2.41 0 0 1-.1-.709c0-.295.043-.554.128-.778.084-.223.202-.412.353-.564a1.44 1.44 0 0 1 .541-.343 2.02 2.02 0 0 1 1.035-.082 2.116 2.116 0 0 1 .589.196c.066.037.126.073.179.11v.78a1.925 1.925 0 0 1-.253.02.222.222 0 0 1-.06-.005 5.082 5.082 0 0 0-.098-.32.529.529 0 0 0-.146-.227.69.69 0 0 0-.264-.154 1.18 1.18 0 0 0-.348-.045c-.139 0-.274.029-.405.085a.944.944 0 0 0-.345.258c-.1.116-.18.263-.242.44a1.912 1.912 0 0 0-.092.624c0 .236.03.44.088.614.058.174.135.32.233.435a.955.955 0 0 0 .734.348M133.923 6.238c.003.01.006.029.01.055l.007.085a.712.712 0 0 1-.007.144 1.83 1.83 0 0 1-.154.032 7.366 7.366 0 0 1-.403.057c-.063.007-.11.01-.14.01a.168.168 0 0 1-.124-.057c-.036-.038-.054-.097-.054-.176v-.085a.819.819 0 0 1-.314.261c-.119.055-.268.082-.447.082a1.18 1.18 0 0 1-.385-.055.788.788 0 0 1-.276-.163.494.494 0 0 1-.11-.147.694.694 0 0 1-.057-.18 1.376 1.376 0 0 1-.02-.205 9.778 9.778 0 0 1-.002-.224V4.533a.36.36 0 0 0-.012-.107c-.009-.025-.036-.042-.083-.052l-.203-.045a.942.942 0 0 1 0-.264c.033-.012.084-.026.154-.041a5.741 5.741 0 0 1 .437-.077l.15-.02.094.034v1.736c0 .338.159.507.477.507a.877.877 0 0 0 .596-.214V4.528a.327.327 0 0 0-.012-.104c-.008-.023-.036-.04-.082-.05l-.204-.045a.331.331 0 0 1-.007-.054 1.166 1.166 0 0 1 .007-.21 1.03 1.03 0 0 1 .154-.041 5.682 5.682 0 0 1 .438-.077l.15-.02.094.034v2.183c0 .043.021.068.064.075a1.618 1.618 0 0 0 .264.02M134.31 6.482a.803.803 0 0 1-.002-.171c.001-.025.006-.04.013-.048a.932.932 0 0 1 .186-.065.509.509 0 0 0 .067-.02c.033-.01.05-.027.05-.054a8.917 8.917 0 0 0 .01-.472V3.35a.38.38 0 0 0-.013-.11c-.008-.026-.036-.042-.082-.05l-.254-.044a1.036 1.036 0 0 1 0-.264 1.03 1.03 0 0 1 .162-.042 5.88 5.88 0 0 1 .472-.077 7.15 7.15 0 0 1 .162-.02l.09.035v3.426a1.827 1.827 0 0 1 .196.034c.031.007.059.015.082.023.023.008.035.014.035.017a.941.941 0 0 1-.01.127 1.206 1.206 0 0 1-.025.142h-1.128a.534.534 0 0 1-.01-.065M135.727 4.364a1.198 1.198 0 0 1-.025-.216c0-.035.004-.057.01-.067a.324.324 0 0 1 .078-.03 3.438 3.438 0 0 1 .345-.065c.033-.096.072-.198.117-.305.045-.108.09-.2.137-.276h.313v.606h.736v.363c0 .023-.012.035-.035.035h-.701V5.99c0 .096.03.16.09.191.06.032.122.048.188.048.076 0 .158-.009.244-.025a1.14 1.14 0 0 0 .214-.06.757.757 0 0 1 .03.154l.01.095a.7.7 0 0 1 .004.064.806.806 0 0 1-.171.09 1.592 1.592 0 0 1-.505.1c-.08 0-.158-.005-.236-.013a.512.512 0 0 1-.206-.065.377.377 0 0 1-.145-.159.66.66 0 0 1-.054-.296V4.41h-.418c-.007 0-.013-.015-.02-.045M140.495 6.238c.003.01.007.029.01.055l.008.085a.8.8 0 0 1-.008.144c-.036.01-.088.02-.154.032a7.351 7.351 0 0 1-.403.057c-.063.007-.109.01-.139.01a.168.168 0 0 1-.124-.057c-.037-.038-.055-.097-.055-.176v-.085a.82.82 0 0 1-.313.261c-.12.055-.268.082-.448.082-.152 0-.28-.018-.385-.055a.787.787 0 0 1-.276-.163.49.49 0 0 1-.11-.147.688.688 0 0 1-.056-.18 1.353 1.353 0 0 1-.02-.205 9.778 9.778 0 0 1-.003-.224V4.533a.36.36 0 0 0-.012-.107c-.008-.025-.036-.042-.082-.052l-.204-.045a1.045 1.045 0 0 1 0-.264c.033-.012.085-.026.154-.041a5.74 5.74 0 0 1 .438-.077c.07-.01.119-.017.149-.02l.094.034v1.736c0 .338.16.507.478.507a.878.878 0 0 0 .596-.214V4.528a.326.326 0 0 0-.012-.104c-.009-.023-.036-.04-.082-.05l-.204-.045a.353.353 0 0 1-.008-.054 1.166 1.166 0 0 1 .008-.21 1.03 1.03 0 0 1 .154-.041 5.752 5.752 0 0 1 .438-.077c.07-.01.119-.017.149-.02l.094.034v2.183c0 .043.022.068.065.075a1.634 1.634 0 0 0 .263.02M142.43 3.912a.46.46 0 0 1 .28.08c.071.052.107.13.107.233 0 .116-.024.201-.072.256a.447.447 0 0 1-.172.122h-.054a3.38 3.38 0 0 0-.112-.117 1.218 1.218 0 0 0-.122-.107.89.89 0 0 0-.3.105 1.226 1.226 0 0 0-.267.203v1.517c.027.003.062.009.107.017l.13.025a.916.916 0 0 1 .106.027c.03.01.045.017.045.02a1.307 1.307 0 0 1-.035.253h-1.178a.85.85 0 0 1-.013-.236c.002-.024.006-.04.013-.047a.121.121 0 0 1 .032-.014l.062-.023c.023-.008.048-.016.072-.022a.53.53 0 0 0 .063-.02c.033-.01.05-.028.05-.055a9.819 9.819 0 0 0 .01-.477V4.533a.36.36 0 0 0-.013-.107c-.009-.025-.036-.042-.082-.052l-.229-.045a.934.934 0 0 1 0-.264c.033-.012.082-.026.147-.041.064-.015.133-.03.206-.043a8.334 8.334 0 0 1 .353-.054l.09.035v.472h.005a.892.892 0 0 1 .116-.172 1.24 1.24 0 0 1 .177-.171.895.895 0 0 1 .221-.13.67.67 0 0 1 .256-.05M143.618 5.89c0 .107.03.19.089.252.06.061.156.092.288.092a.946.946 0 0 0 .251-.035.818.818 0 0 0 .346-.184v-.746c-.12 0-.242.015-.368.045s-.237.074-.333.134a.634.634 0 0 0-.214.191.472.472 0 0 0-.06.251m1.83.329a.11.11 0 0 1 .022.054 1.337 1.337 0 0 1 .02.164.166.166 0 0 1-.002.055.522.522 0 0 1-.199.087c-.08.018-.167.028-.263.028-.153 0-.256-.025-.309-.075a.253.253 0 0 1-.08-.194v-.065h-.01l-.071.082a.86.86 0 0 1-.077.077 1.012 1.012 0 0 1-.259.155c-.096.04-.226.06-.388.06a.81.81 0 0 1-.537-.175c-.139-.116-.209-.283-.209-.502 0-.169.041-.314.122-.435.081-.12.217-.23.405-.326.126-.066.278-.118.455-.156.178-.038.352-.066.525-.082v-.19c0-.046-.003-.098-.01-.158a.449.449 0 0 0-.052-.167.36.36 0 0 0-.132-.132.475.475 0 0 0-.248-.054.877.877 0 0 0-.237.03.343.343 0 0 0-.146.07.268.268 0 0 0-.015.069 1.952 1.952 0 0 0-.01.201v.087a.343.343 0 0 1-.105.055.928.928 0 0 1-.258.047l-.11.003c-.053 0-.088-.01-.106-.03-.019-.02-.028-.052-.028-.095 0-.073.018-.153.052-.24a.507.507 0 0 1 .172-.222c.043-.033.095-.069.157-.107a1.582 1.582 0 0 1 .454-.191c.09-.024.188-.035.294-.035.189 0 .34.026.455.08a.711.711 0 0 1 .27.208c.07.096.11.199.122.308.012.11.018.21.018.299v1.238c0 .056.009.1.027.134.018.033.062.05.132.05a1.634 1.634 0 0 0 .16-.01M145.815 6.482a.803.803 0 0 1-.003-.171c.002-.025.006-.04.013-.048a.932.932 0 0 1 .186-.065.496.496 0 0 0 .067-.02c.034-.01.05-.027.05-.054a8.917 8.917 0 0 0 .01-.472V3.35a.38.38 0 0 0-.012-.11c-.009-.026-.036-.042-.082-.05l-.254-.044a1.036 1.036 0 0 1 0-.264c.033-.013.087-.027.162-.042a5.88 5.88 0 0 1 .472-.077 7.15 7.15 0 0 1 .161-.02l.09.035v3.426a1.827 1.827 0 0 1 .278.057c.024.008.035.014.035.017a.94.94 0 0 1-.01.127 1.206 1.206 0 0 1-.025.142h-1.128a.534.534 0 0 1-.01-.065M153.163 3.46c0 .003-.016.009-.05.017a1.79 1.79 0 0 1-.119.025l-.149.027-.14.025-.039.07c.003.072.006.156.007.25l.008.291a14.673 14.673 0 0 1 .01.552V5.754c0 .041 0 .084.002.127l.005.129c.002.043.004.081.008.114.003.017.012.03.027.038a.273.273 0 0 0 .062.022 5.421 5.421 0 0 1 .13.035.454.454 0 0 1 .094.04c.006.006.01.023.012.05a.758.758 0 0 1-.012.239l-1.168-.001a.189.189 0 0 1-.015-.06l-.01-.082a.692.692 0 0 1-.005-.082v-.055c0-.006.034-.019.101-.037.069-.018.146-.035.232-.052V4.352c0-.138.003-.276.01-.415l-1.183 2.61h-.344L149.48 4.11c.007.1.01.2.01.3V6.18c.086.017.163.034.231.052.068.018.102.03.102.037v.055a.692.692 0 0 1-.005.082 5.936 5.936 0 0 1-.01.082.2.2 0 0 1-.015.06h-1.054a.18.18 0 0 1-.012-.065 1.793 1.793 0 0 1 0-.174c.002-.026.006-.043.012-.05a.434.434 0 0 1 .094-.04l.07-.02a.76.76 0 0 1 .06-.014.27.27 0 0 0 .062-.022.051.051 0 0 0 .027-.038c.004-.033.006-.071.008-.114l.005-.13c.002-.042.002-.085.002-.126V4.717a13.783 13.783 0 0 1 .01-.557l.01-.296.01-.26-.035-.045-.452-.09a.122.122 0 0 1-.012-.057 1.429 1.429 0 0 1 .007-.181.132.132 0 0 1 .02-.065h1.014l1.228 2.585 1.193-2.585h1.074a.203.203 0 0 1 .015.062l.01.087c.003.03.005.058.005.085v.06zM154.078 5.89c0 .107.03.19.09.252.06.061.155.092.288.092a.946.946 0 0 0 .25-.035.824.824 0 0 0 .346-.184v-.746c-.12 0-.242.015-.368.045s-.237.074-.333.134a.633.633 0 0 0-.214.191.474.474 0 0 0-.06.251m1.83.329c.01.01.018.028.023.054a1.338 1.338 0 0 1 .02.164.173.173 0 0 1-.003.055.522.522 0 0 1-.199.087c-.08.018-.167.028-.263.028-.153 0-.256-.025-.308-.075a.254.254 0 0 1-.08-.194v-.065h-.01l-.072.082a.836.836 0 0 1-.336.232c-.096.04-.225.06-.387.06a.81.81 0 0 1-.537-.175c-.14-.116-.21-.283-.21-.502 0-.169.041-.314.123-.435.08-.12.216-.23.405-.326.126-.066.277-.118.455-.156.177-.038.352-.066.524-.082v-.19c0-.046-.003-.098-.01-.158a.45.45 0 0 0-.052-.167.358.358 0 0 0-.132-.132.475.475 0 0 0-.248-.054.878.878 0 0 0-.236.03.34.34 0 0 0-.147.07.26.26 0 0 0-.015.069 1.775 1.775 0 0 0-.01.201v.087a.344.344 0 0 1-.104.055.93.93 0 0 1-.259.047l-.11.003c-.052 0-.088-.01-.106-.03-.018-.02-.027-.052-.027-.095 0-.073.017-.153.052-.24a.504.504 0 0 1 .171-.222 1.885 1.885 0 0 1 .363-.214c.077-.033.16-.061.249-.084.09-.024.187-.035.293-.035.19 0 .34.026.455.08a.714.714 0 0 1 .271.208c.07.096.11.199.122.308.011.11.017.21.017.299v1.238a.28.28 0 0 0 .027.134c.019.033.063.05.132.05a1.627 1.627 0 0 0 .16-.01M158.853 6.221a.77.77 0 0 1 .097.02l.077.022c.022.007.032.012.032.015a.949.949 0 0 1-.01.127 1.102 1.102 0 0 1-.024.142h-1.089a.806.806 0 0 1-.013-.236c.002-.025.006-.041.013-.048a.121.121 0 0 1 .032-.015c.018-.006.04-.013.062-.022a.907.907 0 0 1 .072-.022.53.53 0 0 0 .063-.02c.033-.01.05-.028.05-.055a12.095 12.095 0 0 0 .01-.477v-.78a.589.589 0 0 0-.113-.376c-.074-.094-.203-.142-.385-.142a1.09 1.09 0 0 0-.316.048.953.953 0 0 0-.3.156v1.646a.947.947 0 0 0 .09.017.794.794 0 0 1 .198.057l-.003.05a1.678 1.678 0 0 1-.032.219h-1.079a.853.853 0 0 1-.012-.236c.001-.025.006-.041.012-.048a.12.12 0 0 1 .033-.015l.062-.022a.958.958 0 0 1 .072-.022.519.519 0 0 0 .062-.02c.033-.01.05-.028.05-.055a9.01 9.01 0 0 0 .01-.477V4.533a.352.352 0 0 0-.013-.107c-.008-.024-.036-.042-.082-.052l-.229-.045a1.15 1.15 0 0 1 0-.264c.033-.012.083-.027.15-.041a4.833 4.833 0 0 1 .422-.077c.066-.01.116-.017.15-.02l.089.035v.333c.179-.256.467-.383.865-.383.13 0 .256.019.38.057a.655.655 0 0 1 .306.191c.076.087.12.184.132.291.011.108.017.231.017.37v1.383a.909.909 0 0 0 .092.017M160.009 5.89c0 .107.03.19.09.252.06.061.155.092.288.092a.945.945 0 0 0 .251-.035.818.818 0 0 0 .345-.184v-.746a1.6 1.6 0 0 0-.367.045c-.126.03-.237.074-.334.134a.634.634 0 0 0-.213.191.474.474 0 0 0-.06.251m1.83.329c.01.01.017.028.022.054a1.208 1.208 0 0 1 .02.164.173.173 0 0 1-.003.055.522.522 0 0 1-.198.087c-.08.018-.168.028-.264.028-.152 0-.255-.025-.308-.075a.254.254 0 0 1-.08-.194v-.065h-.01a5.57 5.57 0 0 0-.072.082.86.86 0 0 1-.077.077 1.012 1.012 0 0 1-.258.155c-.097.04-.226.06-.388.06a.81.81 0 0 1-.537-.175c-.14-.116-.209-.283-.209-.502 0-.169.04-.314.122-.435.081-.12.216-.23.405-.326.126-.066.278-.118.455-.156.177-.038.352-.066.524-.082v-.19c0-.046-.003-.098-.01-.158a.45.45 0 0 0-.052-.167.358.358 0 0 0-.131-.132.475.475 0 0 0-.249-.054.877.877 0 0 0-.236.03.343.343 0 0 0-.147.07.268.268 0 0 0-.015.069 1.415 1.415 0 0 0-.01.201v.087a.344.344 0 0 1-.104.055.937.937 0 0 1-.259.047l-.109.003c-.053 0-.089-.01-.107-.03-.018-.02-.027-.052-.027-.095 0-.073.017-.153.052-.24a.506.506 0 0 1 .172-.222 1.885 1.885 0 0 1 .362-.214c.077-.033.16-.061.249-.084.09-.024.187-.035.293-.035.19 0 .34.026.455.08a.711.711 0 0 1 .271.208c.07.096.11.199.122.308.012.11.017.21.017.299v1.238c0 .056.01.1.028.134.018.033.062.05.132.05a1.627 1.627 0 0 0 .159-.01M162.878 4.827c0 .188.047.33.141.422.095.093.22.14.376.14.159 0 .287-.047.385-.14.098-.093.147-.234.147-.422 0-.19-.048-.33-.144-.42a.54.54 0 0 0-.388-.137.517.517 0 0 0-.376.137c-.094.09-.141.23-.141.42zm-.15 2.336c0 .096.054.175.162.236.108.062.261.092.46.092.11 0 .214-.01.313-.03.1-.02.188-.05.266-.089a.564.564 0 0 0 .187-.147.313.313 0 0 0 .05-.303.208.208 0 0 0-.078-.087.554.554 0 0 0-.161-.07 1.79 1.79 0 0 0-.274-.05l-.66-.084-.08-.01a.5.5 0 0 0-.14.212.802.802 0 0 0-.045.27v.06zm2.118-2.903c0 .046-.017.074-.052.084a.641.641 0 0 1-.161.015 3.811 3.811 0 0 1-.313-.02c.086.136.129.299.129.488 0 .149-.027.28-.08.395a.837.837 0 0 1-.216.288.924.924 0 0 1-.32.177 1.391 1.391 0 0 1-.756.015 1.091 1.091 0 0 0-.045.114.358.358 0 0 0-.02.114c0 .067.024.115.072.147a.676.676 0 0 0 .261.072l.577.06c.159.016.29.042.392.077a.766.766 0 0 1 .25.131.433.433 0 0 1 .13.182.787.787 0 0 1-.281.87c-.059.048-.118.092-.178.132-.13.08-.265.139-.408.179-.142.04-.326.06-.552.06-.361 0-.631-.05-.81-.15-.18-.1-.268-.26-.268-.482 0-.156.04-.29.121-.405a.847.847 0 0 1 .326-.271c-.126-.066-.189-.177-.189-.333 0-.16.098-.323.293-.492l.105-.095a.958.958 0 0 1-.36-.313.849.849 0 0 1-.137-.492c0-.14.025-.265.077-.376a.808.808 0 0 1 .216-.283.944.944 0 0 1 .333-.177c.13-.04.27-.06.423-.06.159 0 .308.024.447.07h.994v.279zM166.91 5.02v-.104c0-.189-.05-.336-.15-.442a.49.49 0 0 0-.372-.16c-.12 0-.22.024-.304.07a.614.614 0 0 0-.201.177.769.769 0 0 0-.114.23.96.96 0 0 0-.043.23h1.184zm.571-.06c0 .057-.002.13-.007.217a1.398 1.398 0 0 1-.022.202h-1.726c.004.109.023.214.058.315a.72.72 0 0 0 .402.443.9.9 0 0 0 .366.067 2.165 2.165 0 0 0 .59-.102.966.966 0 0 0 .16-.072l.12.263c-.106.11-.248.196-.425.259-.178.063-.37.094-.58.094-.208 0-.39-.033-.546-.1a1.092 1.092 0 0 1-.627-.683 1.567 1.567 0 0 1-.08-.504c0-.242.034-.454.1-.637.066-.182.157-.333.271-.452.114-.12.25-.209.405-.269.156-.06.322-.09.497-.09.166 0 .322.032.468.095a.861.861 0 0 1 .358.284c.056.076.107.171.151.286.045.114.067.242.067.385zM171.953 6.221a.77.77 0 0 1 .097.02l.077.022c.022.007.033.012.033.015a1.133 1.133 0 0 1-.023.21l-.012.059h-1.089a.806.806 0 0 1-.013-.236c.002-.025.006-.041.013-.048a.125.125 0 0 1 .032-.015l.063-.022a.907.907 0 0 1 .072-.022.53.53 0 0 0 .062-.02c.033-.01.05-.028.05-.055a12.095 12.095 0 0 0 .01-.477v-.78a.617.617 0 0 0-.105-.376c-.07-.094-.179-.142-.328-.142a1.09 1.09 0 0 0-.316.048.955.955 0 0 0-.3.156v1.646a.919.919 0 0 0 .091.017.756.756 0 0 1 .097.02l.077.022c.022.007.033.012.033.015a.895.895 0 0 1-.01.127 1.206 1.206 0 0 1-.025.142h-1.089a.806.806 0 0 1-.013-.236c.002-.025.007-.041.013-.048a.118.118 0 0 1 .033-.015l.062-.022a.912.912 0 0 1 .072-.022.526.526 0 0 0 .062-.02c.033-.01.05-.028.05-.055a10.857 10.857 0 0 0 .01-.477v-.78a.617.617 0 0 0-.105-.376c-.07-.094-.179-.142-.328-.142-.106 0-.211.016-.316.048a.957.957 0 0 0-.3.156v1.646a.96.96 0 0 0 .089.017.794.794 0 0 1 .199.057l-.003.05a2.444 2.444 0 0 1-.02.16c-.004.026-.009.046-.012.059h-1.079a.806.806 0 0 1-.012-.236c.001-.025.006-.041.012-.048a.127.127 0 0 1 .033-.015l.062-.022a.884.884 0 0 1 .072-.022.515.515 0 0 0 .062-.02c.033-.01.05-.028.05-.055a9.848 9.848 0 0 0 .01-.477V4.533a.359.359 0 0 0-.013-.107c-.008-.024-.035-.042-.082-.052l-.229-.045a1.038 1.038 0 0 1 0-.264c.034-.012.083-.027.15-.041a8.017 8.017 0 0 1 .572-.097l.089.035v.333c.179-.256.446-.383.8-.383.13 0 .256.019.38.057a.657.657 0 0 1 .4.33c.18-.258.448-.387.806-.387.13 0 .257.019.38.057a.655.655 0 0 1 .306.191c.077.087.12.184.132.291.012.108.018.231.018.37v1.383a.909.909 0 0 0 .091.017M174.273 5.02v-.104c0-.189-.05-.336-.15-.442a.49.49 0 0 0-.372-.16c-.12 0-.22.024-.303.07a.61.61 0 0 0-.202.177.765.765 0 0 0-.114.23.959.959 0 0 0-.042.23h1.183zm.571-.06c0 .057-.002.13-.007.217a1.376 1.376 0 0 1-.022.202h-1.725c.003.109.022.214.057.315a.716.716 0 0 0 .403.443.9.9 0 0 0 .365.067 2.161 2.161 0 0 0 .59-.102.966.966 0 0 0 .16-.072l.12.263a1.09 1.09 0 0 1-.425.259c-.178.063-.37.094-.58.094a1.39 1.39 0 0 1-.547-.1 1.09 1.09 0 0 1-.626-.683 1.567 1.567 0 0 1-.08-.504c0-.242.034-.454.1-.637.066-.182.157-.333.271-.452.115-.12.25-.209.405-.269.156-.06.322-.09.497-.09.166 0 .322.032.468.095a.86.86 0 0 1 .358.284c.056.076.107.171.151.286.045.114.067.242.067.385zM177.795 6.221a.77.77 0 0 1 .097.02l.077.022c.022.007.032.012.032.015a1.133 1.133 0 0 1-.022.21l-.012.059h-1.09a.806.806 0 0 1-.013-.236c.003-.025.007-.041.014-.048a.121.121 0 0 1 .032-.015l.062-.022a.907.907 0 0 1 .072-.022.53.53 0 0 0 .063-.02c.033-.01.05-.028.05-.055a10.856 10.856 0 0 0 .01-.477v-.78a.589.589 0 0 0-.113-.376c-.074-.094-.203-.142-.385-.142a1.09 1.09 0 0 0-.316.048.953.953 0 0 0-.3.156v1.646a.94.94 0 0 0 .09.017.798.798 0 0 1 .198.057l-.003.05a1.68 1.68 0 0 1-.032.219h-1.079a.853.853 0 0 1-.012-.236c.001-.025.006-.041.012-.048a.12.12 0 0 1 .033-.015l.062-.022a.953.953 0 0 1 .072-.022.519.519 0 0 0 .062-.02c.033-.01.05-.028.05-.055a9.015 9.015 0 0 0 .01-.477V4.533a.352.352 0 0 0-.013-.107c-.008-.024-.036-.042-.082-.052l-.229-.045a.334.334 0 0 1-.007-.054 1.164 1.164 0 0 1 .007-.209c.033-.013.083-.028.15-.042a4.833 4.833 0 0 1 .422-.077c.066-.01.116-.017.15-.02l.089.035v.333c.179-.256.467-.383.865-.383.13 0 .256.019.38.057a.655.655 0 0 1 .306.191c.076.087.12.184.132.291.011.108.017.231.017.37v1.383a.909.909 0 0 0 .092.017M178.245 4.364a1.28 1.28 0 0 1-.025-.216c0-.035.004-.057.01-.067a.33.33 0 0 1 .077-.03 3.437 3.437 0 0 1 .345-.065c.034-.096.073-.198.118-.305.044-.108.09-.2.136-.276h.313v.606h.736v.363c0 .023-.011.035-.034.035h-.702V5.99c0 .096.03.16.09.191.06.032.123.048.189.048.076 0 .157-.009.244-.025.086-.017.157-.037.213-.06a.762.762 0 0 1 .03.154l.01.095c.003.03.005.051.005.064a.81.81 0 0 1-.172.09 1.584 1.584 0 0 1-.504.1c-.08 0-.159-.005-.236-.013a.512.512 0 0 1-.206-.065.377.377 0 0 1-.145-.159.66.66 0 0 1-.055-.296V4.41h-.417c-.007 0-.014-.015-.02-.045M50.317 15.133l-2.811 7.66h-5.382l-2.894-7.66.014-10.895.054 2.4v16.156h-5.144V.17h5.431l4.82 14.672.423.247.45-.247L50.098.17h5.404v22.624H50.36V6.638l.052-2.4zM26.16 11.024C26.494 4.13 32.604 4.6 33.1 4.65L33.063.215S22.375-1.1 21.811 10.496c-.563 11.597 11.434 11.958 11.434 11.958l-.033-4.02c-.524-.027-7.389-.497-7.053-7.41M15.114 0v13.735s3.157 1.708 4.814 7.04c0 0-6.677-10.974-19.928-11.699l6.16 3.013L0 22.72h6.108l3.76-6.902a.553.553 0 0 1 .945-.016c.353.494 1.772 1.884 4.043 6.212l.258.61h5.538V0h-5.538z" fill="#FFF" mask="url(#vavu7spn0b)"/>
        <path d="M7.816 9.956s3.329.69 4.52 2.19l1.277-2.268v-8.1L7.816 9.956z" fill="#FFF" mask="url(#vavu7spn0b)"/>
    </g>
</svg>
